# xmcd
#
# Track frame offsets:
#	150
#	14974
#	38037
#	70395
#	82646
#	103406
#	119480
#	140710
#	155697
#	181949
#
# Disc length: 2761 seconds
# Revision: 6
# Processed by: cddbd v1.5.2PL0 Copyright (c) Steve Scherf et al.
# Submitted via: dBpowerAMP V12.0
#
DISCID=8e0ac70a
DTITLE=Bob Dylan / The Times They Are A-Changin'
DYEAR=2016
DGENRE=Folk
TTITLE0=The Times They Are a-Changin'
TTITLE1=Ballad of Hollis Brown
TTITLE2=With God on Our Side
TTITLE3=One Too Many Mornings
TTITLE4=North Country Blues
TTITLE5=Only a Pawn in Their Game
TTITLE6=Boots of Spanish Leather
TTITLE7=When the Ship Comes In
TTITLE8=The Lonesome Death of Hattie Carroll
TTITLE9=Restless Farewell
EXTD=
EXTT0=
EXTT1=
EXTT2=
EXTT3=
EXTT4=
EXTT5=
EXTT6=
EXTT7=
EXTT8=
EXTT9=
PLAYORDER=
.
